:FULLY-SPECIFIED
:FORCE-ALL-JOINTS-BE-3DOF
:DEGREES
1733
root -5.14294 15.6924 27.3529 907.012 -4.20154 189.065
lfemur -39.5053 9.58025 -16.0249
ltibia 59.0554 0 0
lfoot -16.873 23.9847 0
ltoes -12.7896 0 0
rfemur -27.6405 -20.7199 20.6588
rtibia 61.1395 0 0
rfoot -12.5475 -24.8848 0
rtoes 13.8548 0 0
lowerback 16.9555 2.7395 -5.86282
upperback -0.137989 2.54759 1.93819
thorax -10.0669 1.5177 4.81795
lowerneck 5.56279 -14.9754 -17.0903
upperneck -3.37451 -21.9191 25.0627
head 2.93524 -11.5483 9.41925
lclavicle -7.05811e-14 2.93705e-14 0
lhumerus -52.619 -36.1251 113.826
lradius 98.5165 0 0
lwrist 45.6147 0 0
lhand -5.58341 37.6619 0
lfingers 7.12502 0 0
lthumb 18.7214 62.9582 0
rclavicle -1.03196e-14 5.06642e-14 0
rhumerus 40.5119 41.9945 -29.9198
rradius 128.675 0 0
rwrist -9.97123 0 0
rhand -0.917302 -29.9526 0
rfingers 7.12502 0 0
rthumb 33.9526 -52.9989 0
1734
root -5.07133 15.6953 27.4047 906.857 -1.86935 188.913
lfemur -38.9944 8.57387 -15.205
ltibia 58.8131 0 0
lfoot -16.6583 23.4019 0
ltoes -13.8532 0 0
rfemur -27.335 -21.291 20.6135
rtibia 60.177 0 0
rfoot -12.6655 -24.8364 0
rtoes 13.2448 0 0
lowerback 17.2609 2.96851 -6.27006
upperback -0.0550889 2.71517 1.68398
thorax -10.1785 1.60551 4.72027
lowerneck 5.7937 -14.8495 -17.1428
upperneck -3.50305 -21.7959 25.2421
head 2.86336 -11.5213 9.52942
lclavicle -6.82711e-14 3.16374e-14 0
lhumerus -53.7893 -34.535 113.348
lradius 99.042 0 0
lwrist 44.7164 0 0
lhand -5.49348 37.1075 0
lfingers 7.12502 0 0
lthumb 18.8595 62.4343 0
rclavicle -1.33035e-14 5.34753e-14 0
rhumerus 38.9786 39.9825 -30.9146
rradius 129.238 0 0
rwrist -8.53826 0 0
rhand -1.34008 -30.0839 0
rfingers 7.12502 0 0
rthumb 32.2936 -53.5212 0
1735
root -5.0026 15.6931 27.4508 906.605 0.452724 188.693
lfemur -38.4835 7.56749 -14.385
ltibia 58.5707 0 0
lfoot -16.4436 22.8191 0
ltoes -14.9168 0 0
rfemur -27.0295 -21.8621 20.5681
rtibia 59.2146 0 0
rfoot -12.7834 -24.7879 0
rtoes 12.6348 0 0
lowerback 17.5868 3.01528 -6.77701
upperback 0.0840382 2.90707 1.43637
thorax -10.2347 1.8312 4.65699
lowerneck 5.19921 -14.9772 -17.142
upperneck -2.80662 -22.0071 24.9708
head 3.16955 -11.561 9.33131
lclavicle -6.59612e-14 3.39043e-14 0
lhumerus -54.9596 -32.9448 112.869
lradius 99.5675 0 0
lwrist 43.8181 0 0
lhand -5.40355 36.5531 0
lfingers 7.12502 0 0
lthumb 18.9976 61.9103 0
rclavicle -1.62874e-14 5.62863e-14 0
rhumerus 37.4454 37.9706 -31.9094
rradius 129.8 0 0
rwrist -7.10529 0 0
rhand -1.76287 -30.2151 0
rfingers 7.12502 0 0
rthumb 30.6345 -54.0436 0
1736
root -4.93618 15.6849 27.4933 906.356 2.88088 188.491
lfemur -37.9725 6.56111 -13.5651
ltibia 58.3284 0 0
lfoot -16.2289 22.2363 0
ltoes -15.9803 0 0
rfemur -26.7241 -22.4333 20.5228
rtibia 58.2521 0 0
rfoot -12.9014 -24.7395 0
rtoes 12.0248 0 0
lowerback 17.8359 3.25463 -7.21675
upperback 0.239642 3.10647 1.18556
thorax -10.2382 1.94052 4.56917
lowerneck 5.0822 -14.9186 -17.2223
upperneck -2.77047 -21.9667 25.1424
head 3.22302 -11.5482 9.38972
lclavicle -6.36513e-14 3.61712e-14 0
lhumerus -56.13 -31.3547 112.391
lradius 100.093 0 0
lwrist 42.9199 0 0
lhand -5.31362 35.9986 0
lfingers 7.12502 0 0
lthumb 19.1357 61.3864 0
rclavicle -1.92713e-14 5.90974e-14 0
rhumerus 35.9121 35.9587 -32.9042
rradius 130.363 0 0
rwrist -5.67231 0 0
rhand -2.18565 -30.3463 0
rfingers 7.12502 0 0
rthumb 28.9755 -54.566 0
1737
root -4.87878 15.677 27.5277 906.081 5.38179 188.288
lfemur -37.4616 5.55473 -12.7451
ltibia 58.086 0 0
lfoot -16.0142 21.6535 0
ltoes -17.0439 0 0
rfemur -26.4186 -23.0044 20.4775
rtibia 57.2897 0 0
rfoot -13.0194 -24.691 0
rtoes 11.4148 0 0
lowerback 18.0927 3.47601 -7.55515
upperback 0.395348 3.30143 0.920164
thorax -10.2384 2.04256 4.4065
lowerneck 4.78649 -14.839 -17.266
upperneck -2.7243 -21.8635 25.2447
head 3.28246 -11.492 9.41406
lclavicle -6.13414e-14 3.84381e-14 0
lhumerus -57.3003 -29.7646 111.912
lradius 100.619 0 0
lwrist 42.0216 0 0
lhand -5.22369 35.4442 0
lfingers 7.12502 0 0
lthumb 19.2738 60.8625 0
rclavicle -2.22553e-14 6.19085e-14 0
rhumerus 34.3789 33.9467 -33.899
rradius 130.925 0 0
rwrist -4.23934 0 0
rhand -2.60843 -30.4776 0
rfingers 7.12502 0 0
rthumb 27.3165 -55.0883 0
1738
root -4.82456 15.677 27.5518 905.92 8.1417 188.185
lfemur -36.9507 4.54836 -11.9252
ltibia 57.8437 0 0
lfoot -15.7995 21.0707 0
ltoes -18.1075 0 0
rfemur -26.5571 -23.4765 20.7614
rtibia 57.2675 0 0
rfoot -13.1374 -24.6425 0
rtoes 10.8048 0 0
lowerback 18.1473 3.7815 -7.82434
upperback 0.41161 3.62441 0.693202
thorax -10.2983 2.2033 4.21388
lowerneck 4.83236 -15.3702 -17.6264
upperneck -2.40623 -21.5909 25.391
head 3.39777 -10.8633 9.54642
lclavicle -5.90315e-14 4.0705e-14 0
lhumerus -58.4706 -28.1744 111.434
lradius 101.144 0 0
lwrist 41.1233 0 0
lhand -5.13376 34.8898 0
lfingers 7.12502 0 0
lthumb 19.4118 60.3386 0
rclavicle -2.52392e-14 6.47196e-14 0
rhumerus 32.8456 31.9348 -34.8937
rradius 127.97 0 0
rwrist -2.80637 0 0
rhand -3.03121 -30.6088 0
rfingers 7.12502 0 0
rthumb 25.6575 -55.6107 0
1739
root -4.77087 15.6656 27.5742 905.822 11.0507 188.06
lfemur -36.4398 3.54198 -11.1053
ltibia 57.6013 0 0
lfoot -15.5848 20.4879 0
ltoes -19.1711 0 0
rfemur -26.6957 -23.9486 21.0453
rtibia 57.2454 0 0
rfoot -13.2554 -24.5941 0
rtoes 10.1948 0 0
lowerback 18.1753 4.11266 -8.0569
upperback 0.404331 3.98639 0.436181
thorax -10.3702 2.38008 3.95492
lowerneck 4.56405 -15.2804 -17.7385
upperneck -2.26564 -21.4678 25.4714
head 3.48055 -10.7797 9.57948
lclavicle -5.67215e-14 4.29719e-14 0
lhumerus -59.641 -26.5843 110.955
lradius 101.67 0 0
lwrist 40.225 0 0
lhand -5.41441 34.7333 0
lfingers 7.12502 0 0
lthumb 19.5499 59.8146 0
rclavicle -2.82231e-14 6.75306e-14 0
rhumerus 31.3124 29.9229 -35.8885
rradius 125.014 0 0
rwrist -1.37339 0 0
rhand -3.454 -30.74 0
rfingers 7.12502 0 0
rthumb 23.9985 -56.133 0
1740
root -4.71736 15.6488 27.5902 905.622 14.2735 188.027
lfemur -35.9289 2.5356 -10.2853
ltibia 57.359 0 0
lfoot -15.3701 19.9051 0
ltoes -20.2347 0 0
rfemur -26.8342 -24.4207 21.3293
rtibia 57.2232 0 0
rfoot -13.3734 -24.5456 0
rtoes 9.58477 0 0
lowerback 18.0127 4.49024 -8.15453
upperback 0.580963 4.47492 0.170634
thorax -10.1318 2.60149 3.59029
lowerneck 4.45802 -15.5114 -17.3432
upperneck -2.53166 -21.7114 24.9731
head 3.36005 -10.9082 9.32313
lclavicle -5.44116e-14 4.52388e-14 0
lhumerus -60.8113 -24.9942 110.477
lradius 102.195 0 0
lwrist 39.3267 0 0
lhand -5.69506 34.5768 0
lfingers 7.12502 0 0
lthumb 19.688 59.2907 0
rclavicle -3.12071e-14 7.03417e-14 0
rhumerus 29.7791 27.911 -36.8833
rradius 122.059 0 0
rwrist 0.05958 0 0
rhand -3.87678 -30.8712 0
rfingers 7.12502 0 0
rthumb 22.3394 -56.6554 0
